<svg id="icons" xmlns="http://www.w3.org/2000/svg" width="140" height="82" viewBox="0 0 140 82">
  <defs>
    <style>
      .st0{fill:#B3B3B3;}
    </style>
  </defs>
  <title>S_IlluCreativeCloud_70@2x</title>
  <path class="st0" d="M51.2,65.6c-10.5,0-19.3-8.2-19.6-18.6c-0.3-10.6,8.1-19.4,18.7-19.7c0.2,0,0.3,0,0.5,0h0.1
	c4.7,0,9.3,1.8,12.8,4.9l11.1,11.4c0.8,0.8,2.1,0.9,2.9,0.1c0.8-0.8,0.9-2.1,0.1-2.9l0,0L66.5,29.4c-4.3-4-9.9-6.2-15.8-6.2l0,0
	c-12.8,0-23.2,10.4-23.3,23.2v0.1c0,12.8,10.5,23.2,23.3,23.2h10.4c-1.7-1.2-3.3-2.6-4.8-4.1H51.2z M122.7,34.3
	C119,12,97.9-3.1,75.5,0.6c-8,1.3-15.4,5-21.3,10.5l-0.7,0.6h-0.3c-0.9-0.1-1.8-0.1-2.7-0.1l0,0c-19.5-0.1-35.3,15.6-35.4,35
	C15,66,30.7,81.9,50.2,82c0.1,0,0.3,0,0.4,0h28.8c4.3,0,9.5-0.6,9.5-0.6C111.2,77.8,126.4,56.7,122.7,34.3L122.7,34.3z M88.6,78.7
	c-0.1,0-5.1,0.5-9.2,0.5H50.6c-17.9-0.1-32.4-14.7-32.3-32.7c0.1-17.8,14.5-32.2,32.3-32.3l0,0c1.3,0,2.6,0.1,3.9,0.2L56,13
	c15.4-14.5,39.6-13.7,54.1,1.7s13.7,39.6-1.7,54.1C103,74.1,96.1,77.5,88.6,78.7z M82.1,11.6c-7,0-13.8,2.5-19.1,7.1
	c1.3,0.6,2.6,1.3,3.8,2c11-8.4,26.7-6.4,35.1,4.6c8.3,10.8,6.4,26.3-4.3,34.9c-4.4,3.5-10,5.4-15.6,5.5c-6.7,0-13.1-2.6-17.8-7.3
	L50.1,44.1c-0.7-0.8-2-0.9-2.8-0.2c-0.4,0.4-0.6,0.9-0.7,1.4c0,0.5,0.2,1.1,0.5,1.4l0.1,0.1l14.3,14.3c5.4,5.5,12.9,8.5,20.6,8.5
	l0,0c16,0,29-13,29-29S98.2,11.6,82.1,11.6L82.1,11.6L82.1,11.6z"/>
</svg>
